<svg width="97" height="43" viewBox="0 0 97 43" fill="none" xmlns="http://www.w3.org/2000/svg">
<path d="M96.5516 29.3362C96.3164 29.2394 96.0743 29.1426 95.8391 29.0457C95.8184 29.0665 95.8046 29.0803 95.7838 29.101C96.2058 29.4607 96.2957 29.8896 96.0951 30.3877C95.9775 30.6713 95.8461 30.8235 95.604 30.9065C95.4172 30.5883 95.1405 30.4015 94.7393 30.3946C94.7946 30.6851 94.843 30.9549 94.8984 31.2247C94.9814 31.612 95.0852 31.9994 94.9814 32.3937C94.9399 32.5528 94.8361 32.698 94.7462 32.8364C94.6701 32.954 94.5802 32.9125 94.5179 32.8087C94.4557 32.698 94.4003 32.5804 94.345 32.4629C94.2412 32.2484 93.9438 32.1101 93.7224 32.1654C93.6809 32.1792 93.6394 32.2207 93.6118 32.2553C93.0861 32.9332 92.837 33.7149 92.7955 34.5588C92.7886 34.7386 92.7955 34.9185 92.7748 35.0914C92.754 35.2851 92.6364 35.3197 92.4704 35.2367C91.8755 34.9462 91.502 34.4343 91.1492 33.9086C91.1215 33.8671 91.0939 33.8325 91.0385 33.7495C90.9763 33.9155 90.914 34.0469 90.8725 34.1853C90.6442 34.9462 90.3399 35.6656 89.7519 36.2259C89.5029 36.461 89.1639 36.5925 88.8388 36.5856C88.8665 36.3227 88.908 36.0529 88.9288 35.7901C88.9357 35.6517 88.908 35.5065 88.908 35.3681C88.9011 35.1883 88.8112 35.1883 88.6797 35.2367C88.2163 35.3889 87.8773 35.6863 87.7182 36.1567C87.5315 36.6824 87.4485 37.222 87.3724 37.7753C87.2479 38.6262 86.9573 39.4355 86.2103 39.9543C85.9682 40.1272 85.65 40.1964 85.3594 40.2863C85.2557 40.3209 85.2003 40.3555 85.1588 40.4454C84.9236 40.978 84.8614 41.5107 85.2211 42.0226C85.228 42.0295 85.2211 42.0433 85.228 42.0779C84.723 41.8635 84.3426 41.5245 84.0521 41.0749C83.7823 40.6599 83.6301 40.2033 83.6024 39.7053C83.5886 39.4839 83.5402 39.2556 83.5402 39.0343C83.5402 38.8959 83.6024 38.7645 83.6439 38.5847C83.5748 38.6331 83.5333 38.6538 83.4987 38.6746C82.8623 39.1173 82.1636 39.2764 81.3958 39.0827C81.1675 39.0274 80.9877 38.8959 80.8494 38.7023C80.8217 38.6607 80.7179 38.6331 80.6695 38.6469C80.1507 38.7991 79.7288 39.062 79.5835 39.6361C79.5766 39.6568 79.5627 39.6776 79.542 39.7191C79.3898 39.221 79.3967 38.7507 79.5351 38.2734C79.6942 37.7269 79.9639 37.2427 80.4412 36.8968C80.4758 36.8692 80.5242 36.8277 80.5312 36.7862C80.5796 36.5164 80.7525 36.3296 80.9185 36.129C80.9739 36.0598 81.0085 35.9768 81.0638 35.88C80.6903 35.797 80.3928 35.6379 80.1853 35.3404C80.1715 35.3266 80.1438 35.3128 80.123 35.3128C79.625 35.2505 79.12 35.2021 78.6704 35.4857C78.4906 35.6033 78.3522 35.7832 78.2 35.9284C78.2692 34.8977 78.7603 34.1092 79.6942 33.618C79.8879 33.5143 80.1438 33.535 80.3721 33.4935C80.4274 33.4866 80.5035 33.4935 80.545 33.4589C81.0154 33.0785 81.5688 32.9747 82.1498 32.9471C82.7793 32.9125 83.3949 33.0093 83.9691 33.2791C84.474 33.5143 84.896 33.4036 85.311 33.0785C85.6845 32.788 85.9474 32.4352 86.0512 31.9648C86.148 31.5221 85.9543 31.114 85.5531 30.8995C85.1657 30.692 84.73 30.6574 84.308 30.5744C83.637 30.443 82.966 30.4223 82.2882 30.4084C81.6863 30.4015 81.0915 30.2908 80.4897 30.2424C79.7772 30.1871 79.0647 30.1456 78.3522 30.0902C77.1555 29.9934 75.9865 29.7305 74.8036 29.5438C73.8629 29.3916 72.9221 29.2532 71.9814 29.0803C71.4418 28.9835 70.923 28.7898 70.3835 28.7206C68.5919 28.4992 66.9041 27.9113 65.237 27.268C64.0127 26.7907 62.9059 26.1128 61.8752 25.3104C61.7645 25.2204 61.6677 25.1167 61.5709 25.0129C61.4118 24.8469 61.2181 24.757 60.9898 24.7985C60.4364 24.8953 59.8761 24.9991 59.3227 25.1098C59.0599 25.1582 58.7832 25.1928 58.5272 25.2689C57.8632 25.4695 57.206 25.6839 56.542 25.8983C55.29 26.3065 54.1763 26.9982 53.0349 27.6346C51.8244 28.2986 50.7453 29.1356 49.6939 30.0141C49.1889 30.4292 48.6701 30.8235 48.1651 31.2385C47.9645 31.4045 47.7847 31.5913 47.591 31.7642C46.8301 32.4352 46.0899 33.1338 45.3014 33.7702C44.3814 34.5173 43.4337 35.2367 42.4653 35.9146C40.5284 37.2773 38.3564 38.1281 36.0599 38.6746C35.5757 38.7922 35.0914 38.9098 34.6142 39.0481C33.8256 39.2764 33.0163 39.2211 32.2138 39.3179C31.197 39.4355 30.1732 39.4493 29.1564 39.4078C28.2917 39.3732 27.4271 39.2487 26.5624 39.1934C26.2373 39.1726 25.8984 39.2141 25.5802 39.2833C25.0614 39.394 24.5495 39.56 24.0307 39.6983C23.9269 39.726 23.8093 39.7398 23.7056 39.7329C23.4358 39.7122 23.2283 39.8021 23.0623 40.0165C23.0069 40.0926 22.9447 40.1618 22.8755 40.2171C22.7372 40.3278 22.6472 40.2863 22.6334 40.1134C22.6126 39.7883 22.7233 39.4977 22.9239 39.2418C23.3666 38.6746 23.8785 38.1835 24.4941 37.8099C24.5149 37.7961 24.5287 37.7753 24.5702 37.7269C23.7817 37.8168 23.0277 37.8722 22.2806 38.0036C21.5405 38.135 20.8211 38.3841 20.1224 38.7299C20.0187 38.4325 19.9633 38.1419 20.0532 37.8445C20.0671 37.7892 20.157 37.7477 20.2123 37.6992C20.3369 37.5955 20.4683 37.4917 20.6274 37.3603C20.4129 37.2704 20.2331 37.2358 20.0532 37.3119C19.5206 37.5401 18.9949 37.7892 18.4553 38.0036C18.1856 38.1074 17.8881 38.1558 17.5838 38.2319C17.7152 38.0105 17.8397 37.8445 17.9089 37.6577C17.9573 37.5194 17.9504 37.3534 17.9296 37.2012C17.9089 37.0144 17.5561 36.883 17.3486 36.9314C16.56 37.1113 15.979 37.6232 15.4117 38.1489C15.308 38.2457 15.1835 38.3218 15.0382 38.4256C14.9898 37.6992 15.1281 37.0559 15.4394 36.4403C14.9621 36.8761 14.3949 37.0213 13.8 37.049C13.9453 36.551 14.0836 36.0598 14.2427 35.5203C14.0075 35.5341 13.8277 35.5618 13.6478 35.5618C13.3504 35.5618 13.0599 35.548 12.7624 35.5203C12.375 35.4857 11.9946 35.4235 11.6072 35.3889C10.9708 35.3266 10.3829 35.5341 9.82948 35.7901C9.18617 36.0737 8.57745 36.4334 7.94797 36.7447C7.72662 36.8553 7.49835 36.9729 7.25624 37.049C6.64752 37.2496 6.12181 37.0974 5.67218 36.6409C5.437 36.4057 5.43008 36.3988 5.17414 36.6132C4.89053 36.8553 4.71068 37.1528 4.73143 37.5401C4.71068 37.5471 4.69684 37.5471 4.67609 37.554C4.60692 37.3326 4.51008 37.1182 4.46857 36.8899C4.33714 36.2051 4.46166 35.5618 4.88361 35.0015C5.14647 34.6487 5.45775 34.3374 5.74827 34.0054C5.78978 33.957 5.83128 33.9016 5.86587 33.8532C5.85895 33.8325 5.85203 33.8048 5.85203 33.7841C5.67218 33.7841 5.48542 33.7633 5.30557 33.7771C5.07038 33.7979 4.84211 33.8671 4.61384 33.8878C3.92902 33.957 3.26496 33.8878 2.68391 33.5005C2.12361 33.1269 1.94376 32.3937 2.21353 31.785C1.70857 31.197 1.25203 31.0241 0.601805 31.1762C0.698647 30.9895 0.975339 30.7474 1.30045 30.5952C1.84692 30.3254 2.42105 30.2424 3.02286 30.3877C3.0782 30.4015 3.1612 30.3946 3.20963 30.3669C3.77684 29.9726 4.3994 29.938 5.04963 30.0971C5.22256 30.1386 5.39549 30.1525 5.58918 30.1801C5.58918 30.0556 5.61684 29.9519 5.58226 29.8689C5.43699 29.4331 5.52 29.025 5.66527 28.6099C5.69293 28.5338 5.69985 28.4232 5.65835 28.3609C5.50617 28.1395 5.34015 27.9251 5.15339 27.7383C4.89745 27.4824 4.56542 27.4063 4.17805 27.4478C4.49624 27.2265 4.82136 27.095 5.18105 27.0397C5.84512 26.9359 6.48842 27.012 7.05564 27.3994C7.25624 27.5377 7.46376 27.6553 7.69203 27.7245C8.30076 27.9044 8.68812 28.3194 8.97173 28.8451C9.46286 29.7444 10.1338 30.5053 10.8394 31.2316C10.8809 31.2731 10.9432 31.3007 10.9985 31.3077C11.9462 31.3699 12.8869 31.4391 13.8346 31.4806C14.1528 31.4944 14.471 31.446 14.7892 31.4183C14.9759 31.4045 15.1558 31.3768 15.3426 31.3699C15.8821 31.3561 16.4286 31.3699 16.9681 31.3353C17.3901 31.3077 17.812 31.2454 18.234 31.1762C18.9396 31.0656 19.6382 30.9411 20.3369 30.8165C20.406 30.8027 20.4683 30.7681 20.5444 30.6989C20.4821 30.6782 20.4199 30.6505 20.3576 30.6298C19.9979 30.5398 19.6728 30.3946 19.4099 30.1248C19.2854 30.0003 19.2439 29.8896 19.3615 29.7098C19.5344 29.4469 19.6036 29.1356 19.5483 28.7621C19.4169 28.8174 19.3062 28.8451 19.2093 28.9004C19.0295 29.0042 18.8566 29.1149 18.6836 29.2325C18.483 29.3639 18.3308 29.5368 18.2547 29.772C18.2202 29.862 18.1856 29.9588 18.1372 30.0418C18.0196 30.2424 17.8812 30.2355 17.7775 30.0349C17.5146 29.5368 17.5008 29.025 17.6668 28.4992C17.7221 28.3263 17.8051 28.1603 17.8743 27.9874C17.895 27.932 17.9227 27.8836 17.9296 27.8214C17.1411 28.4716 16.2626 28.7275 15.2665 28.4577C14.637 28.2848 14.637 28.2779 14.5125 28.0773C14.7961 28.0289 15.0659 27.9874 15.3287 27.9459C15.4671 27.9251 15.6054 27.9044 15.7438 27.8698C15.806 27.8559 15.8821 27.8352 15.9236 27.7868C15.9997 27.6899 16.055 27.5792 16.1242 27.4755C16.0274 27.4271 15.9305 27.3441 15.8337 27.3441C15.5017 27.3579 15.1627 27.3786 14.8307 27.4271C14.3741 27.4962 13.9314 27.6208 13.4749 27.6553C13.0184 27.6899 12.6033 27.4962 12.1952 27.2887C12.1053 27.2472 12.0223 27.1919 11.9531 27.1227C12.2021 26.9221 12.4165 26.9705 12.6241 26.9913C12.9907 27.0259 13.302 26.8944 13.5579 26.6385C13.7101 26.4863 13.717 26.3826 13.5856 26.2096C13.5164 26.1128 13.4403 26.009 13.3435 25.9468C13.2605 25.8983 13.1359 25.8776 13.0391 25.8914C11.9393 26.0574 10.8463 26.0989 9.75339 25.8568C9.24843 25.7462 8.84722 25.4902 8.52903 25.089C8.50136 25.0475 8.48752 24.9991 8.44602 24.9092C8.6397 24.9576 8.79188 24.9783 8.93715 25.0268C9.32452 25.1582 10.1269 24.7362 10.2929 24.3765C10.3898 24.1552 10.3759 24.0583 10.1408 24.0238C9.65654 23.9477 9.16542 23.8716 8.68121 23.837C8.0794 23.7955 7.49143 23.7056 6.95188 23.4358C6.37083 23.1383 5.80361 23.1798 5.21564 23.4427C4.64151 23.6986 4.05354 23.9408 3.45173 24.1344C2.83609 24.335 2.22045 24.2935 1.67399 23.8923C1.49414 23.7609 1.35579 23.5741 1.18977 23.4081C0.857745 23.671 0.629474 23.9961 0.657143 24.4872C0.622557 24.4526 0.601805 24.4388 0.58797 24.4111C0.145263 23.4635 0.193684 22.5296 0.823158 21.6926C1.15519 21.2499 1.64632 20.9456 2.2412 20.9179C2.32421 20.911 2.41414 20.8971 2.49714 20.8833C2.73233 20.8349 2.89143 20.7035 2.94677 20.4544C3.00211 20.2054 2.89835 20.0256 2.71158 19.8803C2.62166 19.8111 2.51098 19.7558 2.40722 19.7143C1.80541 19.4998 1.56331 19.0364 1.55639 18.4415C1.54947 18.1164 1.64632 17.7913 1.68782 17.4592C1.69474 17.397 1.70166 17.314 1.66707 17.2794C1.32812 16.9474 0.940752 16.7053 0.442707 16.7329C0.297444 16.7398 0.152181 16.7744 0 16.8021C0.311278 16.4286 0.705564 16.1726 1.16902 16.0135C1.69474 15.8406 2.23429 15.7714 2.76 15.9651C2.99519 16.0481 3.18196 16.0689 3.42406 15.9928C3.90136 15.8475 4.37173 15.9789 4.82827 16.1588C5.39549 16.3801 5.88662 16.726 6.33624 17.1341C6.41925 17.2102 6.52301 17.2656 6.66136 17.3486C6.66136 17.2171 6.66136 17.1272 6.66136 17.0373C6.66827 16.6914 6.65444 16.3386 6.68903 15.9928C6.71669 15.7023 6.85504 15.4394 7.08331 15.2526C6.86888 14.803 6.29474 14.4986 5.79669 14.5609C5.92121 14.4295 6.24632 14.2704 6.58527 14.1874C7.23549 14.0352 7.87188 14.0974 8.46677 14.4018C8.5982 14.4641 8.73655 14.5471 8.81955 14.6647C9.12391 15.0935 9.60121 15.3771 9.82256 15.8752C10.0577 16.4009 10.2653 16.9266 10.2514 17.5146C10.2445 17.895 10.2583 18.2755 10.2791 18.6629C10.286 18.7805 10.3275 18.905 10.3759 19.0156C10.6111 19.569 10.9639 19.9633 11.5865 20.1501C12.3612 20.3783 13.1014 20.7173 13.8623 20.994C14.1182 21.0908 14.3949 21.1531 14.6578 21.2084C15.0244 21.2914 15.2181 21.5128 15.2665 21.8794C15.3149 22.2529 15.4809 22.5642 15.723 22.8478C16.228 23.4358 17.0511 23.6848 17.7221 23.3943C17.9366 23.3044 18.1164 23.1314 18.3101 22.9931C18.3793 22.9447 18.4484 22.8962 18.5314 22.8478C18.5937 22.9308 18.649 22.9931 18.6905 23.0623C19.1747 23.9615 19.8457 24.674 20.7035 25.2204C20.8764 25.3311 21.0424 25.4418 21.1946 25.5801C21.2984 25.6701 21.4021 25.7877 21.4436 25.9122C21.6788 26.5555 21.8932 27.2057 22.1008 27.8629C22.1492 28.015 22.1353 28.188 22.1353 28.354C22.1353 28.6998 22.2322 29.025 22.3844 29.3293C22.5642 29.6752 22.9101 29.8412 23.2975 29.7582C23.4358 29.7305 23.5672 29.6821 23.6987 29.6337C23.8232 29.5853 23.9477 29.5299 24.0722 29.4746C24.1068 29.8343 24.1552 30.1801 24.176 30.5191C24.2105 31.031 24.342 31.5152 24.5495 31.9717C24.7155 32.3383 25.006 32.532 25.428 32.5182C25.8499 32.5044 25.8499 32.5182 26.0229 32.9194C26.092 33.0854 26.1612 33.2514 26.2442 33.4036C26.4863 33.8394 27.1642 34.1023 27.6208 33.9017C27.7799 33.8325 27.932 33.6941 28.0289 33.5489C28.3678 33.037 28.8036 32.615 29.2948 32.2415C29.3155 32.2277 29.3363 32.2207 29.3847 32.2069C29.44 32.2968 29.5092 32.3868 29.5576 32.4767C29.6406 32.6358 29.7167 32.8087 29.7997 32.9747C29.9934 33.3414 30.3669 33.4935 30.7681 33.3759C31.1555 33.2653 31.4668 33.0162 31.7504 32.7465C33.1892 31.363 34.4966 29.8758 35.4511 28.1119C35.5826 27.8698 35.7002 27.6208 35.8316 27.3648C35.8662 27.3856 35.9008 27.3994 35.9215 27.4201C36.2397 27.8144 36.7447 27.8075 37.1805 27.5585C37.8722 27.1642 38.4463 26.6316 38.8268 25.9329C39.0689 25.4971 39.2557 25.0268 39.4632 24.5702C39.4908 24.508 39.5116 24.4457 39.5462 24.3696C39.5808 24.3973 39.6084 24.4042 39.6223 24.4319C39.9543 24.9092 40.4316 25.1167 40.9919 25.1582C41.9396 25.2274 42.6728 24.8192 43.2677 24.1206C43.8695 23.415 44.2084 22.5711 44.5681 21.7411C44.7618 21.3053 44.9486 20.8626 45.1423 20.4268C45.1561 20.3922 45.1976 20.3645 45.2322 20.3507C45.9724 20.0878 46.7125 19.818 47.4527 19.5621C49.1128 18.9811 50.766 18.3585 52.44 17.8328C53.5952 17.4731 54.785 17.2379 55.9609 16.9612C56.5212 16.8298 57.0884 16.6983 57.6557 16.6084C58.1814 16.5323 58.7278 16.5462 59.2536 16.4632C60.139 16.3248 61.0313 16.3386 61.9236 16.3248C63.0581 16.3179 64.1856 16.3248 65.32 16.3663C65.7904 16.3801 66.2608 16.5323 66.7312 16.5392C67.7065 16.56 68.6403 16.809 69.5949 16.9612C71.4695 17.2656 73.3095 17.7567 75.108 18.3654C77.3008 19.1056 79.4728 19.908 81.6587 20.655C82.8485 21.0562 84.0728 21.2983 85.3387 21.2638C85.9336 21.2499 86.5215 21.16 87.0265 20.828C87.5937 20.4544 87.9119 19.9287 87.8358 19.2232C87.7805 18.7459 87.483 18.4069 87.1095 18.1371C86.3624 17.5838 85.5047 17.2725 84.6262 17.0027C84.0936 16.8367 83.5333 16.8367 82.9937 16.7122C81.8454 16.4562 80.6695 16.4424 79.5143 16.3041C79.0854 16.2556 78.6635 16.1588 78.2346 16.1173C77.7988 16.0758 77.363 16.0758 76.9273 16.0412C76.2563 15.9859 75.5784 15.9167 74.9074 15.8614C74.6169 15.8406 74.3194 15.8406 74.0289 15.8198C73.6069 15.7922 73.185 15.7576 72.763 15.7161C71.6078 15.6192 70.4319 15.5916 69.2906 15.391C68.08 15.1835 66.8903 14.8238 65.8457 14.1182C65.1471 13.6478 64.7182 12.963 64.3654 12.2229C64.2617 12.0084 64.1856 11.7801 64.0957 11.5588C63.8605 10.9639 63.8605 10.3414 63.8882 9.7188C63.9366 8.55669 64.3516 7.5191 64.9396 6.53684C65.1125 6.2394 65.2578 5.92812 65.4307 5.63068C65.5483 5.43007 65.6936 5.24331 65.8319 5.04962C65.8457 5.05654 65.8665 5.07037 65.8803 5.07729C65.7697 5.3194 65.6521 5.55459 65.5414 5.79669C65.5621 5.81744 65.576 5.83128 65.5967 5.85203C66.2677 5.2018 67.1462 4.98045 67.997 4.69684C67.4021 5.04962 66.9525 5.50617 66.7312 6.20481C66.9663 6.18406 67.1254 6.09414 67.243 5.95579C67.9555 5.15338 68.8894 4.77985 69.92 4.60692C70.0999 4.57925 70.2867 4.5585 70.4873 4.53774C70.508 4.43398 70.5495 4.33023 70.5564 4.22647C70.6325 3.31338 71.345 2.47639 72.2512 2.33805C72.77 2.25504 73.3026 2.26887 73.8352 2.26887C74.4024 2.26195 74.9697 2.32421 75.5369 2.28271C76.0695 2.24812 76.5952 2.12361 77.1209 2.03368C77.702 1.93684 78.2623 1.7985 78.7534 1.45955C79.0993 1.22436 79.3898 0.933834 79.5697 0.553383C79.6527 0.387368 79.6803 0.193684 79.7357 0C79.9432 0.193684 80.1645 0.373534 80.3582 0.581053C80.6211 0.864662 80.628 1.21744 80.5312 1.57023C80.2199 2.72541 79.0854 3.59008 77.8818 3.60391C77.6536 3.60391 77.4184 3.60391 77.1901 3.60391C77.1832 3.62466 77.1832 3.65233 77.1763 3.67308C77.2593 3.73534 77.3354 3.80451 77.4253 3.84602C77.9579 4.0812 78.4975 4.28872 79.0854 4.30947C80.0608 4.34406 80.8079 3.88752 81.4304 3.18887C81.8662 2.70466 82.1844 2.14436 82.4334 1.54256C82.4473 1.50105 82.468 1.46647 82.5095 1.38346C82.5856 1.70857 82.6617 1.98526 82.7101 2.26887C82.8485 3.10586 82.8346 3.94286 82.5579 4.74526C82.1567 5.9212 81.3612 6.73053 80.1991 7.16632C79.293 7.50526 78.3868 7.82346 77.4322 7.98256C76.8027 8.08631 76.194 8.01714 75.5853 7.87188C75.3432 7.80962 75.0942 7.78196 74.7967 7.72662C74.8382 7.80962 74.8521 7.86496 74.8867 7.89955C75.5507 8.72962 76.4361 8.96481 77.4599 8.8403C78.4491 8.72271 79.3898 8.44602 80.2891 8.00331C81.1606 7.57444 82.0737 7.37383 83.056 7.6021C82.9937 7.64361 82.9315 7.69203 82.8623 7.7197C82.3435 7.95489 81.8869 8.28 81.4788 8.6812C80.9116 9.22767 80.2337 9.61504 79.5697 10.0301C78.8364 10.4866 78.0063 10.6319 77.1832 10.8117C76.6367 10.9293 76.1041 10.9086 75.5507 10.8947C74.4993 10.8601 73.5378 10.5281 72.5901 10.1269C72.2304 9.97474 71.8845 9.73955 71.5871 9.48361C71.1029 9.07549 70.8885 8.52902 70.9438 7.88571C70.9507 7.7612 70.9092 7.69895 70.7985 7.64361C70.2797 7.4015 69.7471 7.40842 69.2076 7.5191C68.6818 7.62286 68.1769 7.80962 67.7272 8.10707C67.5474 8.23158 67.3814 8.38376 67.25 8.55669C67.0839 8.77805 66.9525 9.02015 66.8211 9.26225C66.4821 9.88481 66.662 10.4728 67.0009 11.0262C67.5474 11.9323 68.3913 12.4788 69.3874 12.7693C70.4181 13.0668 71.4764 13.2605 72.5486 13.3711C74.0012 13.5233 75.4608 13.5441 76.9134 13.6201C77.6605 13.6547 78.4075 13.7101 79.1546 13.7931C80.0954 13.8968 81.043 13.9245 81.9907 14.0006C83.1736 14.0974 84.3218 14.3465 85.4494 14.6923C86.7982 15.1074 88.1471 15.5155 89.4337 16.1035C90.2154 16.4632 90.9486 16.8989 91.5089 17.5699C91.9862 18.1441 92.2491 18.8081 92.3321 19.5414C92.3528 19.7212 92.3597 19.9011 92.3736 20.0878C92.3597 20.0947 92.339 20.1017 92.3251 20.1086C92.1591 19.8734 91.9931 19.6451 91.834 19.4099C91.6127 19.0917 91.419 18.7528 91.08 18.5383C90.9694 18.4692 90.8518 18.4207 90.7342 18.3654C90.7273 18.3792 90.7134 18.3931 90.7065 18.4138C90.7273 18.4415 90.748 18.483 90.7757 18.5038C91.2184 18.822 91.5089 19.2647 91.7026 19.7627C91.8894 20.2331 92.0761 20.7173 92.1591 21.2153C92.2698 21.8586 92.0692 22.4466 91.5919 22.9101C91.5297 22.9723 91.4466 23.0069 91.336 23.0761C91.5573 22.4328 91.4812 21.8448 91.2461 21.2776C91.1907 21.1462 91.087 21.0355 91.004 20.911C90.9832 20.9179 90.9694 20.9248 90.9486 20.9317C90.8794 21.1392 90.8172 21.3468 90.7342 21.5474C90.3053 22.5435 89.5721 23.2629 88.6659 23.837C87.4761 24.591 86.1757 24.8607 84.7784 24.7086C82.8277 24.4941 80.9185 24.0929 79.0578 23.4773C77.9994 23.1245 76.9549 22.7302 75.9865 22.1492C75.8136 22.0454 75.606 21.997 75.4054 21.9209C75.2809 22.1838 75.3847 22.3774 75.4954 22.5573C75.9242 23.2214 76.4361 23.8024 77.1071 24.2313C78.4836 25.1098 79.9709 25.7392 81.5618 26.1059C82.5026 26.3203 83.4364 26.5624 84.3841 26.7492C84.9098 26.8529 85.4563 26.8668 85.9958 26.929C86.2518 26.9567 86.5077 27.012 86.7636 27.0328C87.6836 27.1158 88.6036 27.1711 89.5236 27.0604C90.1946 26.9844 90.8725 26.9498 91.5504 26.8875C92.173 26.8253 92.7955 26.7353 93.4181 26.68C94.1029 26.6177 94.767 26.6938 95.3895 27.0259C96.0259 27.3648 96.3994 27.8836 96.517 28.5961C96.5239 28.6514 96.5447 28.7137 96.5585 28.769C96.5516 28.9904 96.5516 29.1633 96.5516 29.3362Z" fill="#1F1F1F"/>
<path d="M19.4376 13.7377C19.6452 12.8177 20.1155 12.043 20.6689 11.3029C20.7865 11.1438 20.9318 11.0123 21.0494 10.8532C21.1047 10.7841 21.1462 10.6803 21.1393 10.5973C21.0978 10.1546 21.0494 9.71879 20.9733 9.283C20.8833 8.75037 20.9249 8.23157 21.0148 7.70586C21.0424 7.53293 21.0701 7.35308 21.084 7.17323C21.167 5.99729 21.4852 4.87669 21.9555 3.80451C22.1492 3.35488 22.4121 2.93985 22.6473 2.51097C22.7303 2.35188 22.8271 2.19278 22.9309 2.01293C22.9378 2.06135 22.9516 2.08902 22.9447 2.10977C22.9101 2.36571 22.8686 2.61473 22.834 2.87067C22.7925 3.20962 22.7441 3.55549 22.7303 3.89443C22.6749 5.13955 23.083 6.26015 23.6779 7.32541C23.6918 7.35308 23.7125 7.38075 23.7333 7.4015C23.7471 7.41533 23.7679 7.41533 23.8024 7.42917C23.92 7.01413 24.1898 6.70285 24.4527 6.37774C24.7294 6.03188 25.0061 5.69293 25.2689 5.33323C25.4349 5.10496 25.5802 5.26406 25.7393 5.31939C26.2443 5.49233 26.5209 5.85203 26.6247 6.36391C26.6662 6.56451 26.687 6.77894 26.687 6.98646C26.687 7.14556 26.7354 7.19398 26.8945 7.21473C27.185 7.24932 27.4548 7.17323 27.6692 7.0003C27.8006 6.88962 27.8975 6.69594 27.9459 6.52301C28.0566 6.1218 28.1949 5.74135 28.4855 5.43007C28.8936 4.98736 29.3916 4.72451 30.0003 4.66225C30.0349 4.93203 30.0418 5.19488 30.1041 5.44391C30.1733 5.7206 30.277 5.99729 30.4085 6.24631C30.533 6.4815 30.6713 6.47458 30.8996 6.36391C31.8127 5.90736 32.6635 5.31248 33.6665 5.04962C34.3167 4.87669 34.9393 4.91819 35.5688 5.14646C35.8593 5.25022 35.8593 5.23639 35.7279 5.51308C35.5134 5.99037 35.3958 6.48842 35.4235 7.01413C35.4443 7.32541 35.6794 7.54676 35.9907 7.54676C36.7655 7.54676 37.4572 7.33233 38.0106 6.76511C38.1074 6.66827 38.2388 6.60601 38.3634 6.52301C38.6055 6.97955 38.474 7.38075 38.2873 7.79579C40.0443 6.19789 41.0196 4.21955 41.3309 1.90225C41.3585 1.90225 41.3793 1.90225 41.407 1.90225C41.4623 2.12361 41.5453 2.33804 41.5799 2.5594C41.6975 3.27879 41.8497 4.00511 41.8981 4.73142C42.0019 6.38466 41.7528 7.99639 41.1579 9.54586C41.0196 9.90556 40.8259 10.2445 40.6599 10.5973C40.6184 10.6803 40.5976 10.7702 40.5631 10.8532C40.4939 11.0262 40.5008 11.1714 40.6184 11.3444C40.9435 11.8424 41.0819 12.4235 41.1994 13.0045C41.2963 13.4887 41.3516 13.9868 41.4277 14.4986C41.8151 14.4917 42.1886 14.381 42.4861 14.1044C42.6797 13.9245 42.8596 13.7239 43.0187 13.5164C43.5167 12.88 44.416 12.8108 44.9625 13.0183C45.2945 13.1429 45.4536 13.4126 45.5712 13.7239C45.7925 14.3188 45.7994 14.9413 45.7441 15.5639C45.6403 16.6499 45.253 17.6668 44.9071 18.6905C44.4506 20.0256 43.9249 21.3329 43.3023 22.6057C43.0049 23.2144 42.6244 23.7609 42.0434 24.1413C41.573 24.4457 41.0888 24.5356 40.5907 24.2105C40.2241 23.9753 40.0581 23.6156 40.0028 23.1937C39.982 23.0207 39.9405 22.8409 39.8782 22.6749C39.8091 22.4812 39.6846 22.4604 39.5739 22.6265C39.3802 22.9308 39.1381 23.1868 38.8752 23.4289C38.813 23.4842 38.7853 23.588 38.7715 23.6779C38.564 24.9368 37.9276 25.9468 36.9937 26.7838C36.8623 26.9013 36.6825 26.9705 36.5164 27.0674C36.2882 26.5278 36.0737 26.0229 35.8593 25.5179C35.6034 25.5663 35.4927 25.7185 35.4512 25.8983C35.0361 27.5239 34.1161 28.8728 33.1131 30.1801C32.8641 30.4983 32.5805 30.7889 32.3107 31.0932C32.0894 31.3423 31.8957 31.612 31.6536 31.8403C31.37 32.1101 31.0518 32.3453 30.7474 32.5874C30.6921 32.6289 30.616 32.6496 30.5468 32.6773C30.3877 32.4075 30.2632 32.1239 30.0834 31.8818C29.9243 31.6674 29.7098 31.4806 29.5023 31.3077C29.3916 31.2108 29.2809 31.2454 29.1564 31.363C28.8936 31.612 28.61 31.8403 28.3194 32.0547C28.0151 32.283 27.7591 32.5459 27.5585 32.871C27.4548 33.0439 27.3372 33.2099 27.1227 33.2722C26.514 32.5735 26.4587 31.7158 26.4656 30.8165C25.9191 31.0241 25.8015 31.5636 25.4418 31.8749C25.2551 31.7573 25.1652 31.5774 25.1306 31.3907C25.0614 31.0241 25.013 30.6505 24.9784 30.277C24.9438 29.8827 24.93 29.4815 24.9092 29.0803C24.8954 28.7552 24.6533 28.5407 24.342 28.6099C24.0791 28.6653 23.8301 28.7829 23.5811 28.8866C23.4289 28.9489 23.2837 29.0319 23.0969 29.1218C23.0415 28.8935 22.9309 28.686 22.9516 28.4854C23.007 27.766 22.6888 27.1435 22.4536 26.5001C22.2945 26.0713 22.1423 25.6493 21.9763 25.2274C21.9417 25.1444 21.8794 25.0544 21.8103 24.9991C21.4436 24.7432 21.0355 24.5356 20.7035 24.2382C19.8665 23.4911 19.1817 22.6195 18.8566 21.5128C18.8289 21.4159 18.8082 21.3122 18.7874 21.2015C18.6145 21.1669 18.5176 21.2153 18.4554 21.3952C18.3101 21.8241 18.0818 22.2045 17.7152 22.495C17.3348 22.7994 16.4701 22.7648 16.2211 22.1699C16.062 21.7826 15.9444 21.3675 15.8614 20.9594C15.7023 20.1985 15.5363 19.4307 15.4533 18.6559C15.2942 17.1618 15.3703 15.6677 15.7715 14.2081C15.8752 13.8277 15.9513 13.4403 16.0966 13.0737C16.4632 12.1191 17.2449 12.0845 18.0058 12.4442C18.1372 12.5065 18.234 12.6586 18.3239 12.7901C18.4346 12.9561 18.5176 13.1498 18.6145 13.3227C18.7874 13.5925 19.0641 13.7377 19.4376 13.7377ZM30.0972 21.0632C30.3739 21.1946 30.6091 21.3329 30.8581 21.4229C31.1555 21.5335 31.4668 21.6096 31.7712 21.7065C32.8918 22.0662 34.0331 22.1976 35.2091 21.9832C36.717 21.7065 37.9829 21.0147 38.9444 19.8042C39.56 19.0295 39.8921 18.1579 39.7676 17.1341C39.6223 16.0204 38.64 14.9206 37.5333 14.6854C37.4918 14.6785 37.4295 14.6716 37.4018 14.6992C37.139 14.9068 36.8761 15.1074 36.6271 15.3218C35.7832 16.0619 34.9393 16.809 34.0954 17.5561C33.3414 18.2201 32.6012 18.8842 31.8403 19.5413C31.3423 19.9702 30.8304 20.3853 30.3324 20.8072C30.2494 20.8764 30.194 20.9525 30.0972 21.0632ZM27.5793 20.8418C27.3925 20.5859 27.2403 20.3576 27.0605 20.1432C26.1059 19.0018 25.1444 17.8674 24.1967 16.7191C23.6226 16.0204 23.0692 15.308 22.5158 14.5955C22.2876 14.298 22.2668 14.2635 21.9348 14.4226C21.1946 14.7892 20.6482 15.3356 20.4199 16.1519C20.2885 16.6223 20.2608 17.1065 20.3369 17.5768C20.5306 18.7735 21.0217 19.8319 21.9832 20.6135C22.7026 21.2015 23.5258 21.5543 24.4734 21.575C25.4557 21.6027 26.3826 21.3813 27.2888 21.0147C27.3925 20.9801 27.4824 20.9041 27.5793 20.8418Z" fill="#1F1F1F"/>
<path d="M65.1127 32.0409C64.1651 31.6674 63.4111 31.0102 62.6364 30.3946C62.2697 30.0972 61.9377 29.7513 61.6333 29.3916C61.1699 28.8451 61.1837 28.1741 61.2667 27.5101C61.3013 27.2472 61.3843 26.9844 61.4812 26.7354C61.5296 26.6108 61.6541 26.514 61.7509 26.4033C62.2213 26.8599 62.7678 27.0951 63.3004 27.3579C64.4625 27.932 65.6315 28.4854 66.8767 28.8728C67.4992 29.0665 68.1148 29.2878 68.7443 29.44C69.5191 29.6268 70.3076 29.7651 71.0893 29.9173C72.0785 30.111 73.0676 30.3185 74.0568 30.4914C74.8108 30.6229 75.5786 30.7059 76.3395 30.8166C76.8998 30.8996 77.4532 30.9895 78.0135 31.0863C78.6291 31.1901 78.7813 31.3699 78.9335 32.0063C79.1064 32.7188 78.6015 33.7979 78.138 34.0746C77.9097 34.2129 77.6676 34.296 77.4048 34.2752C76.7615 34.2268 76.132 34.3375 75.4956 34.4205C74.0637 34.6211 72.784 35.1952 71.615 36.0184C71.0339 36.4265 70.5912 36.9522 70.363 37.637C70.3215 37.7615 70.2661 37.8722 70.2039 38.0244C69.8788 37.6578 69.4499 37.4087 69.3115 36.9038C69.1939 36.4542 68.9933 36.3296 68.5437 36.4472C68.101 36.5648 67.6791 36.7585 67.2571 36.9245C66.8006 37.1113 66.3579 37.3188 65.9013 37.4987C65.6246 37.6093 65.4171 37.7753 65.3064 38.059C65.2234 38.2665 65.1197 38.4671 65.0228 38.6884C64.7392 38.4671 64.6216 38.1766 64.6147 37.8584C64.6147 37.4779 64.6631 37.0975 64.6908 36.7239C64.6908 36.6893 64.7046 36.6547 64.7115 36.5648C64.6147 36.5994 64.5386 36.6202 64.4694 36.6547C64.0821 36.8484 63.6947 37.056 63.3004 37.2289C63.0583 37.3326 62.7539 37.2289 62.6294 37.0352C62.5948 36.9799 62.5741 36.9038 62.5741 36.8346C62.5741 36.6824 62.4842 36.6755 62.3804 36.717C62.2282 36.7793 62.076 36.8554 61.9308 36.9245C61.6818 37.0352 61.5988 37.2635 61.5642 37.5056C61.5157 37.8169 61.4742 38.1212 61.4327 38.4325C61.412 38.4394 61.3982 38.4394 61.3774 38.4463C61.3221 38.3633 61.2667 38.2872 61.2045 38.2042C60.907 37.8169 60.6649 37.4018 60.6234 36.8969C60.6165 36.8346 60.6096 36.7654 60.575 36.7239C60.5058 36.6409 60.4297 36.5441 60.3398 36.5233C60.2845 36.5095 60.1738 36.6063 60.1254 36.6824C59.9179 36.9937 59.7173 37.305 59.5097 37.6301C59.0048 37.2496 58.8595 36.6548 58.6935 36.0944C58.569 36.3642 58.4791 36.6478 58.3269 36.8899C57.9257 37.5056 57.31 37.8376 56.6391 38.0659C56.3485 38.1696 56.0511 38.2388 55.7329 38.1489C55.6983 38.1351 55.636 38.142 55.6153 38.1696C55.2003 38.5501 54.8821 38.9859 54.9236 39.5877C54.9305 39.7053 54.9789 39.8229 55.0066 39.9681C54.6676 39.6914 54.4324 39.3663 54.2733 38.9859C54.0451 38.4394 53.9413 37.8653 54.135 37.2911C54.2318 37.0006 54.2803 36.7516 54.2249 36.4542C54.1488 36.0737 54.3494 35.7555 54.5708 35.4581C54.6884 35.299 54.806 35.1329 54.9236 34.9669C54.9166 34.9531 54.9028 34.9393 54.8959 34.9254C54.8475 34.9393 54.7921 34.9462 54.7437 34.9669C54.1627 35.1606 53.5885 35.3474 52.9591 35.2575C52.1843 35.1468 51.6033 34.4896 51.6448 33.7633C51.0222 33.542 50.4273 33.5005 49.8809 34.0193C49.8878 33.9708 49.8878 33.9363 49.8947 33.9086C49.9016 33.874 49.9154 33.8394 49.9293 33.8048C50.3097 32.8502 50.9876 32.2484 52.0114 32.0824C52.2327 32.0478 52.4195 31.9856 52.5924 31.8611C52.9037 31.6397 53.2703 31.6259 53.63 31.5775C53.7822 31.5567 53.9344 31.5221 54.0797 31.4806C54.1834 31.4529 54.218 31.3976 54.1834 31.2593C54.135 31.0794 54.135 30.8719 54.1696 30.6851C54.1973 30.5191 54.2733 30.3323 54.384 30.2078C54.5224 30.0418 54.467 29.9242 54.3771 29.7859C54.1073 29.3847 53.7684 29.0803 53.2565 29.0319C53.215 29.025 53.1735 29.025 53.1251 29.025C53.0905 29.025 53.0559 29.0388 52.9729 29.0457C53.298 28.8175 53.6231 28.6929 53.969 28.6307C54.6054 28.52 55.2141 28.603 55.7675 28.9281C55.975 29.0526 56.1548 29.1011 56.3969 29.108C57.1025 29.108 57.7527 29.3293 58.3407 29.7098C58.9425 30.0972 59.5512 30.4914 60.0147 31.0587C60.2291 31.3146 60.5335 31.4045 60.8517 31.4253C61.0246 31.4391 61.1976 31.4322 61.3705 31.4184C61.993 31.3561 62.5949 31.536 63.1967 31.6328C63.7639 31.7227 64.3242 31.8749 64.8914 31.9925C64.9606 32.0271 65.0367 32.034 65.1127 32.0409Z" fill="#1F1F1F"/>
</svg>
