<svg width="97" height="43" viewBox="0 0 97 43" fill="none" xmlns="http://www.w3.org/2000/svg">
<path d="M0.00691223 29.3362C0.242104 29.2394 0.484207 29.1426 0.719391 29.0457C0.740143 29.0665 0.753983 29.0803 0.774734 29.101C0.352776 29.4607 0.262856 29.8896 0.463455 30.3877C0.581047 30.6713 0.712479 30.8235 0.954582 30.9065C1.14135 30.5883 1.41804 30.4015 1.81924 30.3946C1.76391 30.6851 1.71549 30.9549 1.66015 31.2247C1.57714 31.612 1.47338 31.9994 1.57714 32.3937C1.61864 32.5528 1.7224 32.698 1.81232 32.8364C1.88842 32.954 1.97835 32.9125 2.0406 32.8087C2.10286 32.698 2.1582 32.5804 2.21353 32.4629C2.31729 32.2484 2.61474 32.1101 2.83609 32.1654C2.87759 32.1792 2.9191 32.2207 2.94677 32.2553C3.47248 32.9332 3.7215 33.7149 3.763 34.5588C3.76992 34.7386 3.76301 34.9185 3.78376 35.0914C3.80451 35.2851 3.9221 35.3197 4.08812 35.2367C4.68301 34.9462 5.05654 34.4343 5.40932 33.9086C5.43699 33.8671 5.46466 33.8325 5.52 33.7495C5.58225 33.9155 5.64451 34.0469 5.68601 34.1853C5.91428 34.9462 6.21864 35.6656 6.80661 36.2259C7.05563 36.461 7.39458 36.5925 7.7197 36.5856C7.69203 36.3227 7.65053 36.0529 7.62978 35.7901C7.62286 35.6517 7.65053 35.5065 7.65053 35.3681C7.65745 35.1883 7.74737 35.1883 7.87879 35.2367C8.34225 35.3889 8.6812 35.6863 8.8403 36.1567C9.02707 36.6824 9.11008 37.222 9.18616 37.7753C9.31068 38.6262 9.6012 39.4355 10.3483 39.9543C10.5904 40.1272 10.9086 40.1964 11.1991 40.2863C11.3029 40.3209 11.3582 40.3555 11.3997 40.4454C11.6349 40.978 11.6971 41.5107 11.3374 42.0226C11.3305 42.0295 11.3374 42.0433 11.3305 42.0779C11.8355 41.8635 12.2159 41.5245 12.5065 41.0749C12.7762 40.6599 12.9284 40.2033 12.9561 39.7053C12.9699 39.4839 13.0183 39.2556 13.0183 39.0343C13.0183 38.8959 12.9561 38.7645 12.9146 38.5847C12.9838 38.6331 13.0253 38.6538 13.0599 38.6746C13.6962 39.1173 14.3949 39.2764 15.1627 39.0827C15.391 39.0274 15.5708 38.8959 15.7092 38.7023C15.7368 38.6607 15.8406 38.6331 15.889 38.6469C16.4078 38.7991 16.8298 39.062 16.975 39.6361C16.982 39.6568 16.9958 39.6776 17.0165 39.7191C17.1687 39.221 17.1618 38.7507 17.0235 38.2734C16.8644 37.7269 16.5946 37.2427 16.1173 36.8968C16.0827 36.8692 16.0343 36.8277 16.0274 36.7862C15.979 36.5164 15.806 36.3296 15.64 36.129C15.5847 36.0598 15.5501 35.9768 15.4947 35.88C15.8683 35.797 16.1657 35.6379 16.3732 35.3404C16.3871 35.3266 16.4147 35.3128 16.4355 35.3128C16.9335 35.2505 17.4385 35.2021 17.8881 35.4857C18.068 35.6033 18.2063 35.7832 18.3585 35.9284C18.2893 34.8977 17.7982 34.1092 16.8644 33.618C16.6707 33.5143 16.4147 33.535 16.1865 33.4935C16.1311 33.4866 16.055 33.4935 16.0135 33.4589C15.5432 33.0785 14.9898 32.9747 14.4087 32.9471C13.7793 32.9125 13.1636 33.0093 12.5895 33.2791C12.0845 33.5143 11.6626 33.4036 11.2475 33.0785C10.874 32.788 10.6111 32.4352 10.5074 31.9648C10.4105 31.5221 10.6042 31.114 11.0054 30.8995C11.3928 30.692 11.8286 30.6574 12.2505 30.5744C12.9215 30.443 13.5925 30.4223 14.2704 30.4084C14.8722 30.4015 15.4671 30.2908 16.0689 30.2424C16.7814 30.1871 17.4938 30.1456 18.2063 30.0902C19.403 29.9934 20.572 29.7305 21.7549 29.5438C22.6956 29.3916 23.6364 29.2532 24.5771 29.0803C25.1167 28.9835 25.6355 28.7898 26.175 28.7206C27.9666 28.4992 29.6544 27.9113 31.3215 27.268C32.5459 26.7907 33.6526 26.1128 34.6833 25.3104C34.794 25.2204 34.8908 25.1167 34.9877 25.0129C35.1468 24.8469 35.3405 24.757 35.5687 24.7985C36.1221 24.8953 36.6824 24.9991 37.2358 25.1098C37.4987 25.1582 37.7753 25.1928 38.0313 25.2689C38.6953 25.4695 39.3525 25.6839 40.0166 25.8983C41.2686 26.3065 42.3823 26.9982 43.5236 27.6346C44.7341 28.2986 45.8132 29.1356 46.8647 30.0141C47.3696 30.4292 47.8884 30.8235 48.3934 31.2385C48.594 31.4045 48.7738 31.5913 48.9675 31.7642C49.7284 32.4352 50.4686 33.1338 51.2572 33.7702C52.1772 34.5173 53.1248 35.2367 54.0933 35.9146C56.0301 37.2773 58.2021 38.1281 60.4987 38.6746C60.9829 38.7922 61.4671 38.9098 61.9444 39.0481C62.733 39.2764 63.5423 39.2211 64.3447 39.3179C65.3615 39.4355 66.3853 39.4493 67.4021 39.4078C68.2668 39.3732 69.1315 39.2487 69.9961 39.1934C70.3212 39.1726 70.6602 39.2141 70.9784 39.2833C71.4972 39.394 72.009 39.56 72.5278 39.6983C72.6316 39.726 72.7492 39.7398 72.853 39.7329C73.1227 39.7122 73.3302 39.8021 73.4963 40.0165C73.5516 40.0926 73.6139 40.1618 73.683 40.2171C73.8214 40.3278 73.9113 40.2863 73.9251 40.1134C73.9459 39.7883 73.8352 39.4977 73.6346 39.2418C73.1919 38.6746 72.68 38.1835 72.0644 37.8099C72.0436 37.7961 72.0298 37.7753 71.9883 37.7269C72.7769 37.8168 73.5309 37.8722 74.2779 38.0036C75.0181 38.135 75.7375 38.3841 76.4361 38.7299C76.5399 38.4325 76.5952 38.1419 76.5053 37.8445C76.4915 37.7892 76.4015 37.7477 76.3462 37.6992C76.2217 37.5955 76.0903 37.4917 75.9312 37.3603C76.1456 37.2704 76.3254 37.2358 76.5053 37.3119C77.0379 37.5401 77.5636 37.7892 78.1032 38.0036C78.373 38.1074 78.6704 38.1558 78.9748 38.2319C78.8433 38.0105 78.7188 37.8445 78.6497 37.6577C78.6012 37.5194 78.6081 37.3534 78.6289 37.2012C78.6497 37.0144 79.0024 36.883 79.21 36.9314C79.9985 37.1113 80.5796 37.6232 81.1468 38.1489C81.2506 38.2457 81.3751 38.3218 81.5203 38.4256C81.5688 37.6992 81.4304 37.0559 81.1191 36.4403C81.5964 36.8761 82.1636 37.0213 82.7585 37.049C82.6133 36.551 82.4749 36.0598 82.3158 35.5203C82.551 35.5341 82.7309 35.5618 82.9107 35.5618C83.2082 35.5618 83.4987 35.548 83.7961 35.5203C84.1835 35.4857 84.5639 35.4235 84.9513 35.3889C85.5877 35.3266 86.1757 35.5341 86.7291 35.7901C87.3724 36.0737 87.9811 36.4334 88.6106 36.7447C88.8319 36.8553 89.0602 36.9729 89.3023 37.049C89.911 37.2496 90.4367 37.0974 90.8863 36.6409C91.1215 36.4057 91.1285 36.3988 91.3844 36.6132C91.668 36.8553 91.8479 37.1528 91.8271 37.5401C91.8479 37.5471 91.8617 37.5471 91.8824 37.554C91.9516 37.3326 92.0485 37.1182 92.09 36.8899C92.2214 36.2051 92.0969 35.5618 91.6749 35.0015C91.4121 34.6487 91.1008 34.3374 90.8103 34.0054C90.7688 33.957 90.7273 33.9016 90.6927 33.8532C90.6996 33.8325 90.7065 33.8048 90.7065 33.7841C90.8863 33.7841 91.0731 33.7633 91.253 33.7771C91.4882 33.7979 91.7164 33.8671 91.9447 33.8878C92.6295 33.957 93.2936 33.8878 93.8746 33.5005C94.4349 33.1269 94.6148 32.3937 94.345 31.785C94.85 31.197 95.3065 31.0241 95.9567 31.1762C95.8599 30.9895 95.5832 30.7474 95.2581 30.5952C94.7116 30.3254 94.1375 30.2424 93.5357 30.3877C93.4803 30.4015 93.3973 30.3946 93.3489 30.3669C92.7817 29.9726 92.1591 29.938 91.5089 30.0971C91.336 30.1386 91.163 30.1525 90.9694 30.1801C90.9694 30.0556 90.9417 29.9519 90.9763 29.8689C91.1215 29.4331 91.0385 29.025 90.8933 28.6099C90.8656 28.5338 90.8587 28.4232 90.9002 28.3609C91.0524 28.1395 91.2184 27.9251 91.4051 27.7383C91.6611 27.4824 91.9931 27.4063 92.3805 27.4478C92.0623 27.2265 91.7372 27.095 91.3775 27.0397C90.7134 26.9359 90.0701 27.012 89.5029 27.3994C89.3023 27.5377 89.0948 27.6553 88.8665 27.7245C88.2578 27.9044 87.8704 28.3194 87.5868 28.8451C87.0957 29.7444 86.4247 30.5053 85.7191 31.2316C85.6776 31.2731 85.6154 31.3007 85.56 31.3077C84.6124 31.3699 83.6716 31.4391 82.7239 31.4806C82.4057 31.4944 82.0875 31.446 81.7694 31.4183C81.5826 31.4045 81.4027 31.3768 81.216 31.3699C80.6764 31.3561 80.13 31.3699 79.5904 31.3353C79.1684 31.3077 78.7465 31.2454 78.3245 31.1762C77.619 31.0656 76.9203 30.9411 76.2217 30.8165C76.1525 30.8027 76.0903 30.7681 76.0142 30.6989C76.0764 30.6782 76.1387 30.6505 76.2009 30.6298C76.5606 30.5398 76.8857 30.3946 77.1486 30.1248C77.2731 30.0003 77.3146 29.8896 77.197 29.7098C77.0241 29.4469 76.9549 29.1356 77.0103 28.7621C77.1417 28.8174 77.2524 28.8451 77.3492 28.9004C77.529 29.0042 77.702 29.1149 77.8749 29.2325C78.0755 29.3639 78.2277 29.5368 78.3038 29.772C78.3384 29.862 78.373 29.9588 78.4214 30.0418C78.539 30.2424 78.6773 30.2355 78.7811 30.0349C79.0439 29.5368 79.0578 29.025 78.8918 28.4992C78.8364 28.3263 78.7534 28.1603 78.6842 27.9874C78.6635 27.932 78.6358 27.8836 78.6289 27.8214C79.4175 28.4716 80.296 28.7275 81.2921 28.4577C81.9215 28.2848 81.9215 28.2779 82.046 28.0773C81.7624 28.0289 81.4927 27.9874 81.2298 27.9459C81.0915 27.9251 80.9531 27.9044 80.8148 27.8698C80.7525 27.8559 80.6764 27.8352 80.6349 27.7868C80.5588 27.6899 80.5035 27.5792 80.4343 27.4755C80.5312 27.4271 80.628 27.3441 80.7248 27.3441C81.0569 27.3579 81.3958 27.3786 81.7278 27.4271C82.1844 27.4962 82.6271 27.6208 83.0836 27.6553C83.5402 27.6899 83.9552 27.4962 84.3633 27.2887C84.4533 27.2472 84.5363 27.1919 84.6054 27.1227C84.3564 26.9221 84.142 26.9705 83.9345 26.9913C83.5679 27.0259 83.2566 26.8944 83.0006 26.6385C82.8485 26.4863 82.8415 26.3826 82.973 26.2096C83.0421 26.1128 83.1182 26.009 83.2151 25.9468C83.2981 25.8983 83.4226 25.8776 83.5194 25.8914C84.6193 26.0574 85.7122 26.0989 86.8051 25.8568C87.3101 25.7462 87.7113 25.4902 88.0295 25.089C88.0572 25.0475 88.071 24.9991 88.1125 24.9092C87.9188 24.9576 87.7666 24.9783 87.6214 25.0268C87.234 25.1582 86.4316 24.7362 86.2656 24.3765C86.1688 24.1552 86.1826 24.0583 86.4178 24.0238C86.902 23.9477 87.3931 23.8716 87.8773 23.837C88.4791 23.7955 89.0671 23.7056 89.6066 23.4358C90.1877 23.1383 90.7549 23.1798 91.3429 23.4427C91.917 23.6986 92.505 23.9408 93.1068 24.1344C93.7224 24.335 94.3381 24.2935 94.8845 23.8923C95.0644 23.7609 95.2027 23.5741 95.3688 23.4081C95.7008 23.671 95.9291 23.9961 95.9014 24.4872C95.936 24.4526 95.9567 24.4388 95.9706 24.4111C96.4133 23.4635 96.3648 22.5296 95.7354 21.6926C95.4033 21.2499 94.9122 20.9456 94.3173 20.9179C94.2343 20.911 94.1444 20.8971 94.0614 20.8833C93.8262 20.8349 93.6671 20.7035 93.6118 20.4544C93.5564 20.2054 93.6602 20.0256 93.847 19.8803C93.9369 19.8111 94.0476 19.7558 94.1513 19.7143C94.7531 19.4998 94.9952 19.0364 95.0021 18.4415C95.0091 18.1164 94.9122 17.7913 94.8707 17.4592C94.8638 17.397 94.8569 17.314 94.8915 17.2794C95.2304 16.9474 95.6178 16.7053 96.1158 16.7329C96.2611 16.7398 96.4064 16.7744 96.5585 16.8021C96.2473 16.4286 95.853 16.1726 95.3895 16.0135C94.8638 15.8406 94.3242 15.7714 93.7985 15.9651C93.5633 16.0481 93.3766 16.0689 93.1345 15.9928C92.6572 15.8475 92.1868 15.9789 91.7303 16.1588C91.163 16.3801 90.6719 16.726 90.2223 17.1341C90.1393 17.2102 90.0355 17.2656 89.8972 17.3486C89.8972 17.2171 89.8972 17.1272 89.8972 17.0373C89.8903 16.6914 89.9041 16.3386 89.8695 15.9928C89.8418 15.7023 89.7035 15.4394 89.4752 15.2526C89.6897 14.803 90.2638 14.4986 90.7618 14.5609C90.6373 14.4295 90.3122 14.2704 89.9733 14.1874C89.323 14.0352 88.6866 14.0974 88.0918 14.4018C87.9603 14.4641 87.822 14.5471 87.739 14.6647C87.4346 15.0935 86.9573 15.3771 86.736 15.8752C86.5008 16.4009 86.2933 16.9266 86.3071 17.5146C86.314 17.895 86.3002 18.2755 86.2794 18.6629C86.2725 18.7805 86.231 18.905 86.1826 19.0156C85.9474 19.569 85.5946 19.9633 84.9721 20.1501C84.1973 20.3783 83.4572 20.7173 82.6963 20.994C82.4403 21.0908 82.1636 21.1531 81.9008 21.2084C81.5342 21.2914 81.3405 21.5128 81.2921 21.8794C81.2436 22.2529 81.0776 22.5642 80.8355 22.8478C80.3306 23.4358 79.5074 23.6848 78.8364 23.3943C78.622 23.3044 78.4421 23.1314 78.2484 22.9931C78.1793 22.9447 78.1101 22.8962 78.0271 22.8478C77.9648 22.9308 77.9095 22.9931 77.868 23.0623C77.3838 23.9615 76.7128 24.674 75.8551 25.2204C75.6821 25.3311 75.5161 25.4418 75.3639 25.5801C75.2602 25.6701 75.1564 25.7877 75.1149 25.9122C74.8797 26.5555 74.6653 27.2057 74.4578 27.8629C74.4093 28.015 74.4232 28.188 74.4232 28.354C74.4232 28.6998 74.3263 29.025 74.1742 29.3293C73.9943 29.6752 73.6484 29.8412 73.2611 29.7582C73.1227 29.7305 72.9913 29.6821 72.8599 29.6337C72.7354 29.5853 72.6109 29.5299 72.4863 29.4746C72.4518 29.8343 72.4033 30.1801 72.3826 30.5191C72.348 31.031 72.2166 31.5152 72.009 31.9717C71.843 32.3383 71.5525 32.532 71.1306 32.5182C70.7086 32.5044 70.7086 32.5182 70.5357 32.9194C70.4665 33.0854 70.3973 33.2514 70.3143 33.4036C70.0722 33.8394 69.3943 34.1023 68.9378 33.9017C68.7787 33.8325 68.6265 33.6941 68.5296 33.5489C68.1907 33.037 67.7549 32.615 67.2638 32.2415C67.243 32.2277 67.2223 32.2207 67.1739 32.2069C67.1185 32.2968 67.0493 32.3868 67.0009 32.4767C66.9179 32.6358 66.8418 32.8087 66.7588 32.9747C66.5651 33.3414 66.1916 33.4935 65.7904 33.3759C65.403 33.2653 65.0918 33.0162 64.8081 32.7465C63.3693 31.363 62.062 29.8758 61.1074 28.1119C60.976 27.8698 60.8584 27.6208 60.7269 27.3648C60.6924 27.3856 60.6578 27.3994 60.637 27.4201C60.3188 27.8144 59.8139 27.8075 59.3781 27.5585C58.6863 27.1642 58.1122 26.6316 57.7318 25.9329C57.4896 25.4971 57.3029 25.0268 57.0954 24.5702C57.0677 24.508 57.0469 24.4457 57.0123 24.3696C56.9778 24.3973 56.9501 24.4042 56.9363 24.4319C56.6042 24.9092 56.1269 25.1167 55.5666 25.1582C54.619 25.2274 53.8857 24.8192 53.2908 24.1206C52.689 23.415 52.3501 22.5711 51.9904 21.7411C51.7967 21.3053 51.6099 20.8626 51.4163 20.4268C51.4024 20.3922 51.3609 20.3645 51.3263 20.3507C50.5862 20.0878 49.846 19.818 49.1059 19.5621C47.4457 18.9811 45.7925 18.3585 44.1185 17.8328C42.9633 17.4731 41.7735 17.2379 40.5976 16.9612C40.0373 16.8298 39.4701 16.6983 38.9029 16.6084C38.3772 16.5323 37.8307 16.5462 37.305 16.4632C36.4196 16.3248 35.5272 16.3386 34.6349 16.3248C33.5005 16.3179 32.3729 16.3248 31.2385 16.3663C30.7681 16.3801 30.2978 16.5323 29.8274 16.5392C28.852 16.56 27.9182 16.809 26.9636 16.9612C25.089 17.2656 23.249 17.7567 21.4505 18.3654C19.2578 19.1056 17.0857 19.908 14.8998 20.655C13.7101 21.0562 12.4857 21.2983 11.2198 21.2638C10.625 21.2499 10.037 21.16 9.53203 20.828C8.96481 20.4544 8.64662 19.9287 8.72271 19.2232C8.77805 18.7459 9.07549 18.4069 9.44903 18.1371C10.1961 17.5838 11.0538 17.2725 11.9323 17.0027C12.465 16.8367 13.0253 16.8367 13.5648 16.7122C14.7131 16.4562 15.889 16.4424 17.0442 16.3041C17.4731 16.2556 17.895 16.1588 18.3239 16.1173C18.7597 16.0758 19.1955 16.0758 19.6313 16.0412C20.3023 15.9859 20.9802 15.9167 21.6511 15.8614C21.9417 15.8406 22.2391 15.8406 22.5296 15.8198C22.9516 15.7922 23.3735 15.7576 23.7955 15.7161C24.9507 15.6192 26.1266 15.5916 27.268 15.391C28.4785 15.1835 29.6683 14.8238 30.7128 14.1182C31.4114 13.6478 31.8403 12.963 32.1931 12.2229C32.2969 12.0084 32.3729 11.7801 32.4629 11.5588C32.6981 10.9639 32.6981 10.3414 32.6704 9.7188C32.622 8.55669 32.2069 7.5191 31.619 6.53684C31.446 6.2394 31.3008 5.92812 31.1278 5.63068C31.0102 5.43007 30.865 5.24331 30.7266 5.04962C30.7128 5.05654 30.692 5.07037 30.6782 5.07729C30.7889 5.3194 30.9065 5.55459 31.0172 5.79669C30.9964 5.81744 30.9826 5.83128 30.9618 5.85203C30.2908 5.2018 29.4123 4.98045 28.5615 4.69684C29.1564 5.04962 29.606 5.50617 29.8274 6.20481C29.5922 6.18406 29.4331 6.09414 29.3155 5.95579C28.603 5.15338 27.6692 4.77985 26.6385 4.60692C26.4586 4.57925 26.2719 4.5585 26.0713 4.53774C26.0505 4.43398 26.009 4.33023 26.0021 4.22647C25.926 3.31338 25.2135 2.47639 24.3074 2.33805C23.7886 2.25504 23.256 2.26887 22.7233 2.26887C22.1561 2.26195 21.5889 2.32421 21.0217 2.28271C20.489 2.24812 19.9633 2.12361 19.4376 2.03368C18.8566 1.93684 18.2962 1.7985 17.8051 1.45955C17.4593 1.22436 17.1687 0.933834 16.9889 0.553383C16.9059 0.387368 16.8782 0.193684 16.8229 0C16.6153 0.193684 16.394 0.373534 16.2003 0.581053C15.9374 0.864662 15.9305 1.21744 16.0274 1.57023C16.3387 2.72541 17.4731 3.59008 18.6767 3.60391C18.905 3.60391 19.1402 3.60391 19.3684 3.60391C19.3753 3.62466 19.3753 3.65233 19.3823 3.67308C19.2993 3.73534 19.2232 3.80451 19.1332 3.84602C18.6006 4.0812 18.0611 4.28872 17.4731 4.30947C16.4977 4.34406 15.7507 3.88752 15.1281 3.18887C14.6923 2.70466 14.3741 2.14436 14.1251 1.54256C14.1113 1.50105 14.0905 1.46647 14.049 1.38346C13.9729 1.70857 13.8968 1.98526 13.8484 2.26887C13.7101 3.10586 13.7239 3.94286 14.0006 4.74526C14.4018 5.9212 15.1973 6.73053 16.3594 7.16632C17.2656 7.50526 18.1717 7.82346 19.1263 7.98256C19.7558 8.08631 20.3645 8.01714 20.9732 7.87188C21.2153 7.80962 21.4644 7.78196 21.7618 7.72662C21.7203 7.80962 21.7065 7.86496 21.6719 7.89955C21.0078 8.72962 20.1224 8.96481 19.0987 8.8403C18.1095 8.72271 17.1687 8.44602 16.2695 8.00331C15.3979 7.57444 14.4848 7.37383 13.5026 7.6021C13.5648 7.64361 13.6271 7.69203 13.6962 7.7197C14.215 7.95489 14.6716 8.28 15.0797 8.6812C15.6469 9.22767 16.3248 9.61504 16.9889 10.0301C17.7221 10.4866 18.5522 10.6319 19.3753 10.8117C19.9218 10.9293 20.4544 10.9086 21.0078 10.8947C22.0593 10.8601 23.0208 10.5281 23.9684 10.1269C24.3281 9.97474 24.674 9.73955 24.9714 9.48361C25.4557 9.07549 25.6701 8.52902 25.6147 7.88571C25.6078 7.7612 25.6493 7.69895 25.76 7.64361C26.2788 7.4015 26.8114 7.40842 27.351 7.5191C27.8767 7.62286 28.3817 7.80962 28.8313 8.10707C29.0111 8.23158 29.1771 8.38376 29.3086 8.55669C29.4746 8.77805 29.606 9.02015 29.7374 9.26225C30.0764 9.88481 29.8965 10.4728 29.5576 11.0262C29.0111 11.9323 28.1672 12.4788 27.1711 12.7693C26.1405 13.0668 25.0821 13.2605 24.0099 13.3711C22.5573 13.5233 21.0978 13.5441 19.6451 13.6201C18.8981 13.6547 18.151 13.7101 17.4039 13.7931C16.4632 13.8968 15.5155 13.9245 14.5678 14.0006C13.385 14.0974 12.2367 14.3465 11.1092 14.6923C9.7603 15.1074 8.41143 15.5155 7.12482 16.1035C6.34316 16.4632 5.60992 16.8989 5.04963 17.5699C4.57233 18.1441 4.30947 18.8081 4.22646 19.5414C4.20571 19.7212 4.1988 19.9011 4.18497 20.0878C4.1988 20.0947 4.21954 20.1017 4.23338 20.1086C4.3994 19.8734 4.56541 19.6451 4.72451 19.4099C4.94586 19.0917 5.13955 18.7528 5.47849 18.5383C5.58917 18.4692 5.70676 18.4207 5.82436 18.3654C5.83128 18.3792 5.84512 18.3931 5.85203 18.4138C5.83128 18.4415 5.81052 18.483 5.78286 18.5038C5.34015 18.822 5.04962 19.2647 4.85594 19.7627C4.66917 20.2331 4.48241 20.7173 4.3994 21.2153C4.28872 21.8586 4.48932 22.4466 4.96661 22.9101C5.02887 22.9723 5.11189 23.0069 5.22256 23.0761C5.00121 22.4328 5.07729 21.8448 5.31248 21.2776C5.36781 21.1462 5.47157 21.0355 5.55458 20.911C5.57533 20.9179 5.58917 20.9248 5.60992 20.9317C5.6791 21.1392 5.74136 21.3468 5.82436 21.5474C6.25323 22.5435 6.98647 23.2629 7.89263 23.837C9.08241 24.591 10.3829 24.8607 11.7802 24.7086C13.7308 24.4941 15.64 24.0929 17.5008 23.4773C18.5591 23.1245 19.6036 22.7302 20.572 22.1492C20.745 22.0454 20.9525 21.997 21.1531 21.9209C21.2776 22.1838 21.1738 22.3774 21.0632 22.5573C20.6343 23.2214 20.1224 23.8024 19.4514 24.2313C18.0749 25.1098 16.5877 25.7392 14.9967 26.1059C14.0559 26.3203 13.1221 26.5624 12.1744 26.7492C11.6487 26.8529 11.1023 26.8668 10.5627 26.929C10.3068 26.9567 10.0508 27.012 9.79489 27.0328C8.87489 27.1158 7.95489 27.1711 7.03489 27.0604C6.36391 26.9844 5.68601 26.9498 5.00812 26.8875C4.38556 26.8253 3.763 26.7353 3.14044 26.68C2.45564 26.6177 1.79157 26.6938 1.16901 27.0259C0.532623 27.3648 0.159096 27.8836 0.0415039 28.5961C0.034584 28.6514 0.0138321 28.7137 0 28.769C0.00691986 28.9904 0.00691223 29.1633 0.00691223 29.3362Z" fill="#1F1F1F"/>
<path d="M77.1209 13.7377C76.9134 12.8177 76.443 12.043 75.8896 11.3029C75.772 11.1438 75.6267 11.0123 75.5091 10.8532C75.4538 10.7841 75.4123 10.6803 75.4192 10.5973C75.4607 10.1546 75.5091 9.71879 75.5852 9.283C75.6752 8.75037 75.6336 8.23157 75.5437 7.70586C75.5161 7.53293 75.4884 7.35308 75.4746 7.17323C75.3915 5.99729 75.0733 4.87669 74.603 3.80451C74.4093 3.35488 74.1464 2.93985 73.9112 2.51097C73.8282 2.35188 73.7314 2.19278 73.6276 2.01293C73.6207 2.06135 73.6069 2.08902 73.6138 2.10977C73.6484 2.36571 73.6899 2.61473 73.7245 2.87067C73.766 3.20962 73.8144 3.55549 73.8282 3.89443C73.8836 5.13955 73.4755 6.26015 72.8806 7.32541C72.8667 7.35308 72.846 7.38075 72.8252 7.4015C72.8114 7.41533 72.7906 7.41533 72.7561 7.42917C72.6385 7.01413 72.3687 6.70285 72.1058 6.37774C71.8291 6.03188 71.5524 5.69293 71.2896 5.33323C71.1236 5.10496 70.9783 5.26406 70.8192 5.31939C70.3142 5.49233 70.0376 5.85203 69.9338 6.36391C69.8923 6.56451 69.8715 6.77894 69.8715 6.98646C69.8715 7.14556 69.8231 7.19398 69.664 7.21473C69.3735 7.24932 69.1037 7.17323 68.8893 7.0003C68.7579 6.88962 68.661 6.69594 68.6126 6.52301C68.5019 6.1218 68.3636 5.74135 68.073 5.43007C67.6649 4.98736 67.1669 4.72451 66.5582 4.66225C66.5236 4.93203 66.5167 5.19488 66.4544 5.44391C66.3852 5.7206 66.2815 5.99729 66.15 6.24631C66.0255 6.4815 65.8872 6.47458 65.6589 6.36391C64.7458 5.90736 63.895 5.31248 62.892 5.04962C62.2418 4.87669 61.6192 4.91819 60.9897 5.14646C60.6992 5.25022 60.6992 5.23639 60.8306 5.51308C61.0451 5.99037 61.1627 6.48842 61.135 7.01413C61.1142 7.32541 60.8791 7.54676 60.5678 7.54676C59.793 7.54676 59.1013 7.33233 58.5479 6.76511C58.4511 6.66827 58.3197 6.60601 58.1951 6.52301C57.953 6.97955 58.0845 7.38075 58.2712 7.79579C56.5142 6.19789 55.5389 4.21955 55.2276 1.90225C55.2 1.90225 55.1792 1.90225 55.1515 1.90225C55.0962 2.12361 55.0132 2.33804 54.9786 2.5594C54.861 3.27879 54.7088 4.00511 54.6604 4.73142C54.5567 6.38466 54.8057 7.99639 55.4006 9.54586C55.5389 9.90556 55.7326 10.2445 55.8986 10.5973C55.9401 10.6803 55.9609 10.7702 55.9954 10.8532C56.0646 11.0262 56.0577 11.1714 55.9401 11.3444C55.615 11.8424 55.4767 12.4235 55.3591 13.0045C55.2622 13.4887 55.2069 13.9868 55.1308 14.4986C54.7434 14.4917 54.3699 14.381 54.0724 14.1044C53.8788 13.9245 53.6989 13.7239 53.5398 13.5164C53.0418 12.88 52.1425 12.8108 51.5961 13.0183C51.264 13.1429 51.1049 13.4126 50.9873 13.7239C50.766 14.3188 50.7591 14.9413 50.8144 15.5639C50.9182 16.6499 51.3055 17.6668 51.6514 18.6905C52.1079 20.0256 52.6336 21.3329 53.2562 22.6057C53.5536 23.2144 53.9341 23.7609 54.5152 24.1413C54.9855 24.4457 55.4697 24.5356 55.9678 24.2105C56.3344 23.9753 56.5004 23.6156 56.5558 23.1937C56.5765 23.0207 56.618 22.8409 56.6803 22.6749C56.7494 22.4812 56.8739 22.4604 56.9846 22.6265C57.1783 22.9308 57.4204 23.1868 57.6833 23.4289C57.7455 23.4842 57.7732 23.588 57.787 23.6779C57.9945 24.9368 58.6309 25.9468 59.5648 26.7838C59.6962 26.9013 59.8761 26.9705 60.0421 27.0674C60.2703 26.5278 60.4848 26.0229 60.6992 25.5179C60.9551 25.5663 61.0658 25.7185 61.1073 25.8983C61.5224 27.5239 62.4424 28.8728 63.4454 30.1801C63.6944 30.4983 63.978 30.7889 64.2478 31.0932C64.4691 31.3423 64.6628 31.612 64.9049 31.8403C65.1885 32.1101 65.5067 32.3453 65.8111 32.5874C65.8664 32.6289 65.9425 32.6496 66.0117 32.6773C66.1708 32.4075 66.2953 32.1239 66.4752 31.8818C66.6342 31.6674 66.8487 31.4806 67.0562 31.3077C67.1669 31.2108 67.2776 31.2454 67.4021 31.363C67.6649 31.612 67.9485 31.8403 68.2391 32.0547C68.5434 32.283 68.7994 32.5459 69 32.871C69.1037 33.0439 69.2213 33.2099 69.4358 33.2722C70.0445 32.5735 70.0998 31.7158 70.0929 30.8165C70.6394 31.0241 70.757 31.5636 71.1167 31.8749C71.3034 31.7573 71.3933 31.5774 71.4279 31.3907C71.4971 31.0241 71.5455 30.6505 71.5801 30.277C71.6147 29.8827 71.6285 29.4815 71.6493 29.0803C71.6631 28.7552 71.9052 28.5407 72.2165 28.6099C72.4794 28.6653 72.7284 28.7829 72.9774 28.8866C73.1296 28.9489 73.2749 29.0319 73.4616 29.1218C73.517 28.8935 73.6276 28.686 73.6069 28.4854C73.5515 27.766 73.8697 27.1435 74.1049 26.5001C74.264 26.0713 74.4162 25.6493 74.5822 25.2274C74.6168 25.1444 74.6791 25.0544 74.7482 24.9991C75.1149 24.7432 75.523 24.5356 75.855 24.2382C76.692 23.4911 77.3768 22.6195 77.7019 21.5128C77.7296 21.4159 77.7503 21.3122 77.7711 21.2015C77.944 21.1669 78.0409 21.2153 78.1031 21.3952C78.2484 21.8241 78.4767 22.2045 78.8433 22.495C79.2237 22.7994 80.0884 22.7648 80.3374 22.1699C80.4965 21.7826 80.6141 21.3675 80.6971 20.9594C80.8562 20.1985 81.0222 19.4307 81.1052 18.6559C81.2643 17.1618 81.1882 15.6677 80.787 14.2081C80.6833 13.8277 80.6072 13.4403 80.4619 13.0737C80.0953 12.1191 79.3137 12.0845 78.5527 12.4442C78.4213 12.5065 78.3245 12.6586 78.2346 12.7901C78.1239 12.9561 78.0409 13.1498 77.944 13.3227C77.7711 13.5925 77.4944 13.7377 77.1209 13.7377ZM66.4613 21.0632C66.1846 21.1946 65.9494 21.3329 65.7004 21.4229C65.403 21.5335 65.0917 21.6096 64.7873 21.7065C63.6667 22.0662 62.5254 22.1976 61.3494 21.9832C59.8415 21.7065 58.5756 21.0147 57.6141 19.8042C56.9985 19.0295 56.6664 18.1579 56.7909 17.1341C56.9362 16.0204 57.9185 14.9206 59.0252 14.6854C59.0667 14.6785 59.129 14.6716 59.1567 14.6992C59.4195 14.9068 59.6824 15.1074 59.9314 15.3218C60.7753 16.0619 61.6192 16.809 62.4631 17.5561C63.2171 18.2201 63.9573 18.8842 64.7182 19.5413C65.2162 19.9702 65.7281 20.3853 66.2261 20.8072C66.3091 20.8764 66.3645 20.9525 66.4613 21.0632ZM68.9792 20.8418C69.166 20.5859 69.3182 20.3576 69.498 20.1432C70.4526 19.0018 71.4141 17.8674 72.3618 16.7191C72.9359 16.0204 73.4893 15.308 74.0427 14.5955C74.2709 14.298 74.2917 14.2635 74.6237 14.4226C75.3639 14.7892 75.9103 15.3356 76.1386 16.1519C76.27 16.6223 76.2977 17.1065 76.2216 17.5768C76.0279 18.7735 75.5368 19.8319 74.5753 20.6135C73.8559 21.2015 73.0327 21.5543 72.0851 21.575C71.1028 21.6027 70.1759 21.3813 69.2697 21.0147C69.166 20.9801 69.0761 20.9041 68.9792 20.8418Z" fill="#1F1F1F"/>
<path d="M31.4458 32.0409C32.3935 31.6674 33.1474 31.0102 33.9222 30.3946C34.2888 30.0972 34.6208 29.7513 34.9252 29.3916C35.3886 28.8451 35.3748 28.1741 35.2918 27.5101C35.2572 27.2472 35.1742 26.9844 35.0774 26.7354C35.0289 26.6108 34.9044 26.514 34.8076 26.4033C34.3372 26.8599 33.7908 27.0951 33.2581 27.3579C32.096 27.932 30.927 28.4854 29.6819 28.8728C29.0593 29.0665 28.4437 29.2878 27.8142 29.44C27.0395 29.6268 26.2509 29.7651 25.4692 29.9173C24.4801 30.111 23.4909 30.3185 22.5017 30.4914C21.7477 30.6229 20.9799 30.7059 20.219 30.8166C19.6587 30.8996 19.1053 30.9895 18.545 31.0863C17.9294 31.1901 17.7772 31.3699 17.625 32.0063C17.4521 32.7188 17.9571 33.7979 18.4205 34.0746C18.6488 34.2129 18.8909 34.296 19.1537 34.2752C19.7971 34.2268 20.4265 34.3375 21.0629 34.4205C22.4948 34.6211 23.7745 35.1952 24.9435 36.0184C25.5246 36.4265 25.9673 36.9522 26.1956 37.637C26.2371 37.7615 26.2924 37.8722 26.3547 38.0244C26.6798 37.6578 27.1086 37.4087 27.247 36.9038C27.3646 36.4542 27.5652 36.3296 28.0148 36.4472C28.4575 36.5648 28.8795 36.7585 29.3014 36.9245C29.758 37.1113 30.2007 37.3188 30.6572 37.4987C30.9339 37.6093 31.1414 37.7753 31.2521 38.059C31.3351 38.2665 31.4389 38.4671 31.5357 38.6884C31.8193 38.4671 31.9369 38.1766 31.9438 37.8584C31.9438 37.4779 31.8954 37.0975 31.8677 36.7239C31.8677 36.6893 31.8539 36.6547 31.847 36.5648C31.9438 36.5994 32.0199 36.6202 32.0891 36.6547C32.4765 36.8484 32.8638 37.056 33.2581 37.2289C33.5002 37.3326 33.8046 37.2289 33.9291 37.0352C33.9637 36.9799 33.9844 36.9038 33.9844 36.8346C33.9844 36.6824 34.0744 36.6755 34.1781 36.717C34.3303 36.7793 34.4825 36.8554 34.6277 36.9245C34.8768 37.0352 34.9598 37.2635 34.9944 37.5056C35.0428 37.8169 35.0843 38.1212 35.1258 38.4325C35.1465 38.4394 35.1604 38.4394 35.1811 38.4463C35.2365 38.3633 35.2918 38.2872 35.3541 38.2042C35.6515 37.8169 35.8936 37.4018 35.9351 36.8969C35.942 36.8346 35.9489 36.7654 35.9835 36.7239C36.0527 36.6409 36.1288 36.5441 36.2187 36.5233C36.2741 36.5095 36.3847 36.6063 36.4332 36.6824C36.6407 36.9937 36.8413 37.305 37.0488 37.6301C37.5538 37.2496 37.699 36.6548 37.865 36.0944C37.9896 36.3642 38.0795 36.6478 38.2317 36.8899C38.6329 37.5056 39.2485 37.8376 39.9195 38.0659C40.21 38.1696 40.5074 38.2388 40.8256 38.1489C40.8602 38.1351 40.9225 38.142 40.9432 38.1696C41.3583 38.5501 41.6765 38.9859 41.635 39.5877C41.628 39.7053 41.5796 39.8229 41.552 39.9681C41.8909 39.6914 42.1261 39.3663 42.2852 38.9859C42.5135 38.4394 42.6172 37.8653 42.4235 37.2911C42.3267 37.0006 42.2783 36.7516 42.3336 36.4542C42.4097 36.0737 42.2091 35.7555 41.9877 35.4581C41.8702 35.299 41.7526 35.1329 41.635 34.9669C41.6419 34.9531 41.6557 34.9393 41.6626 34.9254C41.7111 34.9393 41.7664 34.9462 41.8148 34.9669C42.3959 35.1606 42.97 35.3474 43.5995 35.2575C44.3742 35.1468 44.9553 34.4896 44.9138 33.7633C45.5363 33.542 46.1312 33.5005 46.6777 34.0193C46.6708 33.9708 46.6708 33.9363 46.6638 33.9086C46.6569 33.874 46.6431 33.8394 46.6293 33.8048C46.2488 32.8502 45.5709 32.2484 44.5471 32.0824C44.3258 32.0478 44.139 31.9856 43.9661 31.8611C43.6548 31.6397 43.2882 31.6259 42.9285 31.5775C42.7763 31.5567 42.6241 31.5221 42.4789 31.4806C42.3751 31.4529 42.3405 31.3976 42.3751 31.2593C42.4235 31.0794 42.4235 30.8719 42.3889 30.6851C42.3613 30.5191 42.2852 30.3323 42.1745 30.2078C42.0362 30.0418 42.0915 29.9242 42.1814 29.7859C42.4512 29.3847 42.7902 29.0803 43.302 29.0319C43.3435 29.025 43.385 29.025 43.4335 29.025C43.4681 29.025 43.5026 29.0388 43.5856 29.0457C43.2605 28.8175 42.9354 28.6929 42.5896 28.6307C41.9532 28.52 41.3444 28.603 40.7911 28.9281C40.5835 29.0526 40.4037 29.1011 40.1616 29.108C39.456 29.108 38.8058 29.3293 38.2178 29.7098C37.616 30.0972 37.0073 30.4914 36.5438 31.0587C36.3294 31.3146 36.025 31.4045 35.7068 31.4253C35.5339 31.4391 35.361 31.4322 35.188 31.4184C34.5655 31.3561 33.9637 31.536 33.3619 31.6328C32.7947 31.7227 32.2344 31.8749 31.6671 31.9925C31.598 32.0271 31.5219 32.034 31.4458 32.0409Z" fill="#1F1F1F"/>
</svg>
